<?xml version="1.0" standalone="no"?>
<!DOCTYPE svg PUBLIC "-//W3C//DTD SVG 20010904//EN"
 "http://www.w3.org/TR/2001/REC-SVG-20010904/DTD/svg10.dtd">
<svg version="1.0" xmlns="http://www.w3.org/2000/svg"
 width="720.000000pt" height="720.000000pt" viewBox="0 0 720.000000 720.000000"
 preserveAspectRatio="xMidYMid meet">
<metadata>
Created by potrace 1.11, written by Peter Selinger 2001-2013
</metadata>
<g transform="translate(0.000000,720.000000) scale(0.100000,-0.100000)"
fill="#000000" stroke="none">
<path d="M513 5875 l0 -351 1289 0 c708 1 1288 -2 1288 -5 0 -4 17 -6 38 -5
l37 2 0 -2376 -1 -2376 411 0 411 0 0 2356 c-1 1295 1 2365 3 2377 2 13 7 20
11 18 5 -3 11 -2 13 2 3 5 567 8 1254 8 l1249 -1 0 351 0 351 -3001 0 -3002 0
0 -351z"/>
</g>
</svg>
